<svg width="586" height="464" viewBox="0 0 586 464" fill="none" xmlns="http://www.w3.org/2000/svg">
<path d="M11.0955 -57.6341C20.7625 -48.6727 43.0931 -28.8646 55.0793 -21.3237C70.0621 -11.8976 110.73 -1.05585 162.589 2.48534C214.447 6.02653 254.4 -22.8023 330.183 39.1581C405.966 101.118 423.123 96.017 500.733 211.651C562.821 304.158 633.826 307.401 661.567 297.459M8.45951 -74.1515C18.1265 -65.19 40.4571 -45.3819 52.4433 -37.841C67.4262 -28.4149 108.094 -17.5732 159.953 -14.032C211.811 -10.4908 242.843 -41.2199 325.524 9.96469C399.889 56.0012 427.058 24.4857 504.668 140.12C566.756 232.627 646.846 250.57 674.588 240.628M4.66247 -41.639C14.5116 -33.1006 37.5113 -13.6356 50.717 -4.08342C67.2243 7.85676 123.731 31.1393 159.639 30.9235C195.547 30.7076 259.958 32.7148 307.579 71.1268C332.933 91.5774 430.289 187.836 459.253 235.603C511.3 321.438 579.623 382.228 675.299 383.503M2.43763 -18.0434C19.5552 -4.62503 34.7093 16.1971 46.0645 25.4143C60.2585 36.9358 80.7927 57.6871 153.473 67.3592C185.232 71.5856 226.185 81.3646 286.025 116.715C338.524 147.727 394.195 230.229 417.501 288.353C453.574 378.316 600.465 458.865 674.536 460.831" stroke="#EEEEEE" stroke-width="6"/>
</svg>
