<svg width="802" height="488" viewBox="0 0 802 488" fill="none" xmlns="http://www.w3.org/2000/svg">
<path d="M20.0065 22.842C30.5683 35.2864 55.1226 62.9541 68.8453 74.0695C85.9987 87.9639 135.147 107.862 199.625 120.808C264.103 133.754 319.321 105.596 403.574 193.132C487.828 280.669 510.262 277.372 587.384 430.072C649.081 552.232 737.647 568.018 774.218 560.641M19.5978 2.44237C30.1596 14.8868 54.7139 42.5544 68.4366 53.6699C85.59 67.5643 134.739 87.462 199.217 100.408C263.695 113.354 308.047 81.4086 402.852 157.077C488.122 225.135 527.762 191.594 604.884 344.293C666.581 466.453 763.971 501.521 800.542 494.144M9.12221 41.0949C19.9869 53.0586 45.4414 80.4235 60.3418 94.1731C78.9674 111.36 145.814 148.938 190.929 154.679C236.044 160.419 316.55 173.61 369.585 227.985C397.821 256.934 503.134 389.521 531.106 452.082C581.37 564.501 656.465 649.377 776.347 666.908M2.186 69.2352C21.3182 88.3105 36.6855 116.004 49.3216 129.04C65.1168 145.334 87.2504 173.841 176.79 197.676C215.917 208.091 265.609 226.752 334.523 279.469C394.981 325.718 450.38 434.715 469.431 508.846C498.917 623.583 669.171 745.466 761.811 760.221" stroke="#171721" stroke-width="6"/>
</svg>
