<svg width="119" height="118" viewBox="0 0 119 118" fill="none" xmlns="http://www.w3.org/2000/svg">
<g id="Fuego de Racha">
<path id="Vector" opacity="0.5" d="M63.5907 107.188C78.9602 104.11 98.8333 93.0529 98.8333 64.4625C98.8333 38.4484 79.7911 21.122 66.0982 13.162C63.0547 11.392 59.5 13.7175 59.5 17.233V26.2206C59.5 33.3105 56.5205 46.2511 48.2408 51.6349C44.0125 54.3833 39.44 50.2681 38.9287 45.2531L38.5058 41.1329C38.0142 36.344 33.1368 33.4383 29.3117 36.3588C22.4332 41.595 15.25 50.7892 15.25 64.4575C15.25 99.42 41.2542 108.167 54.2539 108.167C55.0144 108.167 55.8076 108.142 56.6336 108.093C58.8264 107.818 56.6336 108.58 63.5907 107.183" fill="#BCD933"/>
<path id="Vector_2" d="M39.833 90.683C39.833 103.565 50.2121 107.547 56.6333 108.098C58.8261 107.823 56.6333 108.585 63.5903 107.188C68.6988 105.384 74.2497 100.752 74.2497 90.683C74.2497 84.3061 70.2229 80.3679 67.0713 78.5241C66.1077 77.9587 64.9867 78.6716 64.9031 79.7828C64.6278 83.313 61.2353 86.1253 58.9293 83.4408C56.8889 81.071 56.0285 77.6047 56.0285 75.3873V72.4865C56.0285 70.746 54.2733 69.5856 52.7688 70.4805C47.1834 73.7894 39.833 80.6039 39.833 90.683Z" fill="#BCD933"/>
</g>
</svg>
