<svg width="43" height="42" viewBox="0 0 43 42" fill="none" xmlns="http://www.w3.org/2000/svg">
<g id="Vector">
<path id="Vector_2" d="M12.2196 0H29.8596C36.5796 0 42.0396 5.46 42.0396 12.18V29.82C42.0395 33.0503 40.7563 36.1484 38.4721 38.4326C36.1879 40.7168 33.0899 42 29.8596 42H12.2196C5.49955 42 0.0395508 36.54 0.0395508 29.82V12.18C0.0395508 8.94966 1.3228 5.85163 3.60699 3.56744C5.89118 1.28325 8.98921 0 12.2196 0ZM11.7996 4.2C9.79451 4.2 7.8716 4.9965 6.45382 6.41427C5.03605 7.83205 4.23955 9.75496 4.23955 11.76V30.24C4.23955 34.419 7.62055 37.8 11.7996 37.8H30.2795C32.2846 37.8 34.2075 37.0035 35.6253 35.5857C37.0431 34.168 37.8396 32.245 37.8396 30.24V11.76C37.8396 7.581 34.4585 4.2 30.2795 4.2H11.7996ZM32.0645 7.35C32.7607 7.35 33.4284 7.62656 33.9207 8.11884C34.413 8.61113 34.6895 9.27881 34.6895 9.975C34.6895 10.6712 34.413 11.3389 33.9207 11.8312C33.4284 12.3234 32.7607 12.6 32.0645 12.6C31.3684 12.6 30.7007 12.3234 30.2084 11.8312C29.7161 11.3389 29.4395 10.6712 29.4395 9.975C29.4395 9.27881 29.7161 8.61113 30.2084 8.11884C30.7007 7.62656 31.3684 7.35 32.0645 7.35ZM21.0396 10.5C23.8243 10.5 26.495 11.6062 28.4642 13.5754C30.4333 15.5445 31.5395 18.2152 31.5395 21C31.5395 23.7848 30.4333 26.4555 28.4642 28.4246C26.495 30.3938 23.8243 31.5 21.0396 31.5C18.2548 31.5 15.5841 30.3938 13.6149 28.4246C11.6458 26.4555 10.5396 23.7848 10.5396 21C10.5396 18.2152 11.6458 15.5445 13.6149 13.5754C15.5841 11.6062 18.2548 10.5 21.0396 10.5ZM21.0396 14.7C19.3687 14.7 17.7663 15.3637 16.5848 16.5452C15.4033 17.7267 14.7395 19.3291 14.7395 21C14.7395 22.6709 15.4033 24.2733 16.5848 25.4548C17.7663 26.6363 19.3687 27.3 21.0396 27.3C22.7104 27.3 24.3128 26.6363 25.4943 25.4548C26.6758 24.2733 27.3396 22.6709 27.3396 21C27.3396 19.3291 26.6758 17.7267 25.4943 16.5452C24.3128 15.3637 22.7104 14.7 21.0396 14.7Z" fill="white"/>
</g>
</svg>
