<svg width="80" height="82" viewBox="0 0 80 82" fill="none" xmlns="http://www.w3.org/2000/svg">
<g id="Logo">
<path id="Vector" d="M41.3666 27.5742L43.8433 27.9218C43.9213 27.252 43.7378 26.5778 43.3317 26.0431C42.9257 25.5084 42.3294 25.1556 41.67 25.0598L41.3666 27.5742ZM42.23 20.3855L41.93 22.8965C43.2966 23.0888 44.54 22.1202 44.7066 20.7365L42.23 20.3855ZM20.93 24.692L21.23 22.181C20.9067 22.1341 20.5775 22.1532 20.2617 22.2372C19.9459 22.3212 19.6499 22.4683 19.3912 22.6699C19.1324 22.8716 18.9161 23.1236 18.755 23.4111C18.594 23.6987 18.4914 24.016 18.4533 24.3443L20.93 24.692ZM21.79 17.5032L19.3166 17.1556C19.2386 17.8254 19.4221 18.4996 19.8282 19.0343C20.2342 19.569 20.8306 19.9219 21.49 20.0176L21.79 17.5032ZM53.1566 20.7061L52.0066 30.2911L56.96 30.9897L58.1066 21.4047L53.1566 20.7061ZM47.2933 34.3816C46.2266 34.2331 45.56 34.1352 45.06 34.0272C44.8358 33.9919 44.618 33.9237 44.4133 33.8247L41.8566 38.138C42.59 38.5936 43.3566 38.8265 44.1 38.9885C44.82 39.1437 45.7 39.2686 46.69 39.407L47.2933 34.3816ZM38.8933 27.2266C38.76 28.3268 38.6166 29.5216 38.5366 30.5645C38.47 31.4757 38.4033 32.6975 38.6366 33.6323L43.47 32.468C43.49 32.5355 43.4633 32.4646 43.4633 32.144C43.4633 31.8582 43.4789 31.4903 43.51 31.0403C43.58 30.1291 43.71 29.0558 43.8433 27.9218L38.8933 27.2266ZM44.4133 33.8247C43.9393 33.5117 43.5993 33.0258 43.47 32.468L38.64 33.6323C39.1 35.4886 40.2366 37.1255 41.8566 38.138L44.4133 33.8247ZM52.0066 30.2911C51.87 31.4386 51.7766 32.1811 51.6733 32.7481C51.6321 33.0384 51.5536 33.322 51.44 33.5918L55.84 36.0556C56.203 35.3354 56.4527 34.5622 56.58 33.764C56.7166 33.0046 56.83 32.0731 56.96 30.9897L52.0066 30.2911ZM46.6933 39.407C47.6866 39.5487 48.56 39.6736 49.2933 39.7208C50.0566 39.7715 50.85 39.7546 51.6633 39.5183L50.21 34.6415C49.9881 34.6856 49.7604 34.6913 49.5366 34.6583C49.0266 34.6246 48.36 34.5335 47.2933 34.3816L46.6933 39.407ZM51.44 33.5885C51.315 33.8384 51.1417 34.0604 50.9305 34.2413C50.7192 34.4222 50.4742 34.5582 50.21 34.6415L51.6633 39.5183C52.5512 39.2498 53.3776 38.8054 54.0946 38.211C54.8115 37.6166 55.4048 36.8839 55.84 36.0556L51.44 33.5885ZM49.5633 15.4445C50.63 15.593 51.2966 15.6908 51.7966 15.7988C52.27 15.9001 52.4066 15.9811 52.4433 16.0013L54.9966 11.6881C54.3037 11.2765 53.546 10.9888 52.7566 10.8376C52.0366 10.679 51.1566 10.5575 50.1633 10.4191L49.5633 15.4445ZM58.1066 21.4047C58.2366 20.318 58.35 19.3865 58.3933 18.6136C58.4558 17.8027 58.3974 16.9869 58.22 16.1937L53.3833 17.3581C53.431 17.648 53.4411 17.943 53.4133 18.2356C53.38 18.8127 53.2966 19.5552 53.1566 20.7061L58.1066 21.4047ZM52.44 16.0047C52.9145 16.3163 53.2524 16.801 53.3833 17.3581L58.22 16.1937C57.7637 14.3262 56.6059 12.7109 54.9966 11.6881L52.44 16.0047ZM50.1633 10.4191C49.2995 10.2831 48.4312 10.1784 47.56 10.1052C46.7655 10.0287 45.9605 10.0973 45.19 10.3077L46.6466 15.1846C46.8685 15.1405 47.0962 15.1348 47.32 15.1677C47.83 15.2015 48.4966 15.2926 49.5633 15.4445L50.1633 10.4191ZM44.7066 20.7365C44.84 19.6058 44.9733 18.5258 45.1166 17.6281C45.1922 17.1803 45.2633 16.8203 45.33 16.5481C45.41 16.2376 45.45 16.1735 45.4166 16.2376L41.0166 13.7705C40.5733 14.6075 40.3466 15.8123 40.1966 16.7067C40.03 17.7395 39.8866 18.9342 39.7533 20.0345L44.7066 20.7365ZM45.19 10.3077C44.3027 10.5766 43.4769 11.0212 42.7605 11.6156C42.0442 12.21 41.4514 12.9424 41.0166 13.7705L45.4166 16.2376C45.5423 15.9889 45.7159 15.7648 45.9271 15.5851C46.1384 15.4054 46.383 15.2704 46.6466 15.188L45.19 10.3077ZM10.0066 24.3747L11.1533 14.7897L6.19996 14.0911L5.0533 23.6761L10.0066 24.3747ZM13.5966 29.633C12.8484 29.5404 12.1036 29.4222 11.3633 29.2786C11.1392 29.2433 10.9213 29.175 10.7166 29.0761L8.16663 33.3893C8.89996 33.845 9.65996 34.0812 10.4066 34.2432C11.1266 34.3985 12.0066 34.52 13 34.6583L13.5966 29.633ZM5.0533 23.6761C4.9233 24.7595 4.80996 25.691 4.76663 26.4638C4.69878 27.2747 4.75727 28.0913 4.93996 28.8837L9.77329 27.7193C9.72671 27.4293 9.71775 27.1343 9.74663 26.8418C9.77996 26.2681 9.86663 25.5222 10.0066 24.3747L5.0533 23.6761ZM10.72 29.0761C10.2447 28.7637 9.90677 28.2777 9.77663 27.7193L4.9433 28.8837C5.4033 30.74 6.54329 32.3768 8.16329 33.3893L10.72 29.0761ZM18.4533 24.3443C18.32 25.4783 18.1866 26.555 18.0433 27.4493C17.9677 27.8971 17.8966 28.2571 17.83 28.5293C17.75 28.8398 17.71 28.904 17.7433 28.8432L22.1433 31.307C22.5866 30.47 22.8166 29.2685 22.9633 28.3707C23.13 27.3413 23.2733 26.1432 23.4066 25.043L18.4533 24.3443ZM13 34.6583C13.9933 34.8001 14.8666 34.925 15.6033 34.9722C16.3633 35.0228 17.1533 35.0093 17.9666 34.7697L16.5133 29.8962C16.2914 29.9403 16.0637 29.946 15.84 29.9131C15.0896 29.8442 14.3414 29.7519 13.5966 29.6363L13 34.6583ZM17.7433 28.8432C17.618 29.0925 17.4479 29.3139 17.2366 29.4942C17.0254 29.6744 16.7805 29.81 16.5166 29.8928L17.9666 34.7697C18.8545 34.5012 19.6843 34.0568 20.4012 33.4624C21.1182 32.868 21.7081 32.1353 22.1433 31.307L17.7433 28.8432ZM15.8666 10.6925C16.9333 10.8443 17.6 10.9388 18.1 11.0468C18.5733 11.1481 18.71 11.2291 18.7466 11.2493L21.3033 6.93946C20.6096 6.52638 19.8507 6.23752 19.06 6.08558C18.34 5.93033 17.46 5.80883 16.4666 5.66708L15.8666 10.6925ZM24.2666 17.8475C24.4 16.7506 24.5433 15.5525 24.6233 14.513C24.69 13.6017 24.7566 12.38 24.5233 11.4451L19.69 12.6095C19.67 12.5386 19.6933 12.6095 19.6966 12.9301C19.6966 13.2158 19.68 13.5848 19.6466 14.0371C19.58 14.945 19.45 16.0216 19.3133 17.1522L24.2666 17.8475ZM18.7466 11.2595C19.2206 11.5725 19.5573 12.0584 19.6866 12.6162L24.52 11.4485C24.0637 9.58273 22.9106 7.96885 21.3033 6.94621L18.7466 11.2595ZM16.4666 5.66708C15.4733 5.52871 14.6 5.40721 13.8666 5.35658C13.071 5.2797 12.2683 5.34829 11.4966 5.55908L12.95 10.4393C13.1717 10.3941 13.3993 10.3872 13.6233 10.4191C14.1333 10.4528 14.8 10.544 15.8666 10.6925L16.4666 5.66708ZM11.1533 14.7863C11.29 13.6388 11.38 12.8963 11.4866 12.3293C11.5281 12.0402 11.6066 11.7577 11.72 11.489L7.31996 9.02521C6.95725 9.74435 6.70758 10.5164 6.57996 11.3135C6.43996 12.0728 6.32996 13.0043 6.19996 14.0911L11.1533 14.7863ZM11.5 5.56246C10.6121 5.831 9.78566 6.27537 9.06869 6.86979C8.35172 7.46421 7.75845 8.19347 7.3233 9.02183L11.7233 11.4923C11.8486 11.243 12.022 11.0217 12.2333 10.8414C12.4446 10.6611 12.6894 10.5255 12.9533 10.4427L11.5 5.56246ZM21.4933 20.021L41.9333 22.8998L42.5333 17.8745L22.0966 14.9956L21.4933 20.021ZM41.6733 25.0632L21.2333 22.1843L20.6333 27.2131L41.07 30.0886L41.6733 25.0632Z" fill="#F4EBEB"/>
<path id="Vector_2" opacity="0.5" d="M38.4969 62.8295L36.0935 63.5281C35.7602 62.1713 36.5602 60.7606 37.8902 60.3725L38.4969 62.8295ZM36.7669 55.8263L37.3735 58.2833C37.0618 58.3762 36.7347 58.4041 36.4121 58.3652C36.0894 58.3262 35.778 58.2214 35.4965 58.057C35.2151 57.8926 34.9695 57.672 34.7748 57.4087C34.58 57.1453 34.4401 56.8447 34.3635 56.525L36.7669 55.8263ZM58.4035 57.0447L57.7969 54.5877C58.1083 54.4948 58.4352 54.4668 58.7577 54.5055C59.0802 54.5442 59.3915 54.6488 59.6729 54.8128C59.9543 54.9769 60.1999 55.1971 60.3948 55.46C60.5897 55.723 60.7299 56.0233 60.8069 56.3427L58.4035 57.0447ZM56.6735 50.0416L59.0735 49.343C59.2327 50.0011 59.1352 50.696 58.8011 51.2832C58.4671 51.8703 57.9223 52.3044 57.2802 52.4952L56.6735 50.0416ZM25.9669 57.713L28.2735 67.0516L23.4669 68.4455L21.1602 59.1102L25.9669 57.713ZM33.4502 70.4198C34.4902 70.1161 35.1402 69.9271 35.6235 69.7448C35.8447 69.6776 36.0547 69.5775 36.2469 69.4478L39.2902 73.3831C38.6235 73.9366 37.9002 74.2775 37.1802 74.5441C36.4869 74.8006 35.6335 75.0503 34.6635 75.3305L33.4502 70.4198ZM40.9002 62.1308C41.1669 63.2041 41.4535 64.3685 41.6569 65.3911C41.8369 66.2821 42.0502 67.4937 41.9335 68.4556L37.0169 67.9696C37.0069 68.0438 37.0235 67.9696 36.9835 67.6523C36.9381 67.2889 36.878 66.9275 36.8035 66.569C36.588 65.5504 36.3512 64.5366 36.0935 63.5281L40.9002 62.1308ZM36.2469 69.4478C36.6793 69.0722 36.9569 68.5433 37.0169 67.9696L41.9335 68.4556C41.7089 70.3804 40.7626 72.1444 39.2902 73.3831L36.2469 69.4478ZM28.2735 67.0516C28.5502 68.1687 28.7302 68.8943 28.9035 69.4377C28.9807 69.7154 29.0927 69.982 29.2369 70.2308L25.2002 73.319C24.7518 72.6523 24.4088 71.919 24.1835 71.1455C23.9502 70.4097 23.7302 69.5018 23.4669 68.4455L28.2735 67.0516ZM34.6635 75.3305C33.6969 75.6106 32.8435 75.8603 32.1235 76.0156C31.3769 76.1742 30.5902 76.2721 29.7569 76.1506L30.5835 71.0948C30.6269 71.1016 30.7835 71.1151 31.2602 71.0138C31.7602 70.9092 32.4135 70.7202 33.4502 70.4198L34.6635 75.3305ZM29.2335 70.2275C29.5902 70.7337 30.0869 71.024 30.5835 71.0948L29.7602 76.154C28.8503 76.0182 27.977 75.6936 27.1932 75.2063C26.4094 74.719 25.7314 74.0792 25.2002 73.319L29.2335 70.2275ZM28.9002 51.9856C27.8602 52.2893 27.2102 52.4783 26.7269 52.6606C26.5046 52.7275 26.2933 52.8276 26.1002 52.9576L23.0569 49.0223C23.7235 48.4655 24.4502 48.128 25.1669 47.8613C25.8635 47.6015 26.7169 47.3551 27.6835 47.075L28.9002 51.9856ZM21.1602 59.1102C20.9002 58.0538 20.6735 57.1426 20.5369 56.3832C20.3751 55.5841 20.3336 54.7649 20.4135 53.9532L25.3335 54.4358C25.322 54.7271 25.3478 55.0187 25.4102 55.3032C25.5102 55.8668 25.6902 56.5958 25.9669 57.713L21.1602 59.1102ZM26.1002 52.9576C25.6677 53.3333 25.3935 53.8621 25.3335 54.4358L20.4135 53.9498C20.6469 52.0396 21.5769 50.2542 23.0569 49.0223L26.1002 52.9576ZM27.6835 47.075C28.6502 46.7915 29.5069 46.5417 30.2269 46.3898C30.9702 46.2312 31.7569 46.1333 32.5902 46.2548L31.7669 51.3106C31.5375 51.2967 31.3074 51.323 31.0869 51.3882C30.5869 51.4962 29.9335 51.6852 28.8969 51.9856L27.6835 47.075ZM34.3669 56.525C34.0935 55.4213 33.8335 54.3717 33.5802 53.5077C33.4797 53.1567 33.3652 52.8099 33.2369 52.4682C33.1235 52.1712 33.0735 52.1172 33.1169 52.178L37.1502 49.0898C37.7002 49.8627 38.0702 51.0237 38.3269 51.8911C38.6202 52.8901 38.9069 54.0545 39.1735 55.1311L34.3669 56.525ZM32.5902 46.2548C33.5001 46.3906 34.3767 46.7118 35.1605 47.1991C35.9443 47.6864 36.619 48.3296 37.1502 49.0898L33.1169 52.178C32.9625 51.9478 32.7663 51.7523 32.5341 51.6036C32.3018 51.455 32.0418 51.3564 31.7702 51.314L32.5902 46.2548ZM69.2069 55.1581L66.9002 45.8195L71.7035 44.4222L74.0102 53.7608L69.2069 55.1581ZM66.2735 60.8821C67.3135 60.5783 67.9635 60.3893 68.4469 60.2071C68.668 60.1399 68.8781 60.0398 69.0702 59.9101L72.1135 63.8453C71.4805 64.3529 70.7688 64.7457 70.0035 65.0063C69.3102 65.2628 68.4569 65.5126 67.4902 65.7927L66.2735 60.8821ZM74.0102 53.7608C74.2735 54.8172 74.4969 55.7251 74.6369 56.4845C74.7769 57.2675 74.8602 58.0673 74.7569 58.9145L69.8402 58.4318C69.8506 58.1404 69.8238 57.8489 69.7602 57.5645C69.5981 56.7572 69.4136 55.9548 69.2069 55.1581L74.0102 53.7608ZM69.0702 59.9101C69.5026 59.5344 69.7802 59.0056 69.8402 58.4318L74.7569 58.9145C74.533 60.8388 73.588 62.6027 72.1169 63.842L69.0702 59.9101ZM60.8102 56.3461C61.0835 57.4463 61.3435 58.496 61.5969 59.3633C61.7235 59.7931 61.838 60.1396 61.9402 60.4028C62.0535 60.6965 62.1035 60.7538 62.0602 60.6931L58.0235 63.7812C57.4769 63.0083 57.1069 61.8473 56.8502 60.9766C56.5569 59.981 56.2702 58.8166 56.0035 57.7433L60.8102 56.3461ZM67.4902 65.7927C66.5235 66.0728 65.6669 66.3226 64.9469 66.4778C64.1723 66.6656 63.3707 66.7147 62.5802 66.6162L63.4069 61.5571C63.4502 61.5638 63.6069 61.5773 64.0835 61.4761C64.5869 61.3715 65.2335 61.1825 66.2735 60.8821L67.4902 65.7927ZM62.0602 60.6931C62.2145 60.9233 62.4107 61.1188 62.643 61.2674C62.8753 61.4161 63.1353 61.5147 63.4069 61.5571L62.5802 66.6162C61.6697 66.4824 60.799 66.1619 60.015 65.6745C59.231 65.187 58.5533 64.5428 58.0235 63.7812L62.0602 60.6931ZM61.7235 42.4512C60.6835 42.755 60.0335 42.944 59.5502 43.1262C59.329 43.1934 59.119 43.2935 58.9269 43.4232L55.8769 39.488C56.5435 38.9311 57.2735 38.5936 57.9935 38.327C58.6869 38.0671 59.5402 37.8207 60.5102 37.5406L61.7235 42.4512ZM54.2735 50.7402C54.0069 49.667 53.7202 48.5026 53.5169 47.48C53.3369 46.589 53.1235 45.3807 53.2402 44.4155L58.1569 44.9015C58.1669 44.8238 58.1502 44.9015 58.1902 45.2153C58.2213 45.4988 58.2813 45.8611 58.3702 46.3021C58.5502 47.1931 58.8069 48.2393 59.0802 49.343L54.2735 50.7402ZM58.9269 43.4232C58.4944 43.7989 58.2168 44.3277 58.1569 44.9015L53.2402 44.4155C53.4735 42.5052 54.3969 40.7198 55.8769 39.488L58.9269 43.4232ZM60.5102 37.5406C61.4769 37.2605 62.3302 37.0107 63.0502 36.8555C63.8248 36.6677 64.6263 36.622 65.4169 36.7205L64.5902 41.7762C64.3619 41.7627 64.133 41.789 63.9135 41.8538C63.4135 41.9618 62.7602 42.1508 61.7235 42.4512L60.5102 37.5406ZM66.9002 45.8195C66.7124 45.0183 66.5023 44.2226 66.2702 43.4333C66.193 43.1556 66.081 42.8891 65.9369 42.6402L69.9735 39.5521C70.4535 40.2338 70.7502 40.9696 70.9902 41.7256C71.2235 42.458 71.4435 43.3658 71.7035 44.4256L66.9002 45.8195ZM65.4135 36.7171C66.3235 36.8528 67.1967 37.1741 67.9805 37.6614C68.7643 38.1486 69.4423 38.7919 69.9735 39.5521L65.9369 42.6402C65.7825 42.41 65.5863 42.2145 65.3541 42.0659C65.1218 41.9172 64.8618 41.8186 64.5902 41.7762L65.4135 36.7171ZM57.2835 52.4986L37.3769 58.2833L36.1635 53.3727L56.0702 47.5846L57.2835 52.4986ZM37.8935 60.3725L57.7969 54.5877L59.0135 59.4983L39.1069 65.2831L37.8935 60.3725Z" fill="#D1DE83"/>
</g>
</svg>
