<svg width="116" height="116" viewBox="0 0 116 116" fill="none" xmlns="http://www.w3.org/2000/svg">
<rect width="116" height="116" fill="#2E2E2E"/>
<rect width="1287" height="6185" transform="translate(-624 -195)" fill="#2E2E2E"/>
<rect x="-19.5" y="-145.5" width="155" height="291" rx="4.5" stroke="#9747FF" stroke-dasharray="10 5"/>
<path d="M59.9818 38.7729L63.5729 39.2708C63.6861 38.3115 63.4199 37.346 62.8312 36.5803C62.2424 35.8145 61.3777 35.3092 60.4216 35.1721L59.9818 38.7729ZM61.2336 28.4779L60.7986 32.0739C62.7803 32.3494 64.5831 30.9623 64.8247 28.9806L61.2336 28.4779ZM30.3486 34.6453L30.7836 31.0493C30.3149 30.9822 29.8376 31.0096 29.3797 31.1299C28.9218 31.2501 28.4926 31.4608 28.1173 31.7496C27.7421 32.0383 27.4285 32.3992 27.195 32.811C26.9614 33.2228 26.8126 33.6772 26.7574 34.1474L30.3486 34.6453ZM31.5956 24.3503L28.0093 23.8524C27.8961 24.8117 28.1623 25.7772 28.751 26.5429C29.3398 27.3087 30.2045 27.814 31.1606 27.9511L31.5956 24.3503ZM77.0772 28.9371L75.4098 42.6638L82.5921 43.6643L84.2547 29.9376L77.0772 28.9371ZM68.5754 48.5218C67.0288 48.3091 66.0621 48.1689 65.3371 48.0143C65.0121 47.9637 64.6962 47.866 64.3994 47.7243L60.6923 53.9013C61.7556 54.5538 62.8672 54.8873 63.9451 55.1193C64.9891 55.3416 66.2651 55.5204 67.7006 55.7186L68.5754 48.5218ZM56.3954 38.2751C56.2021 39.8508 55.9943 41.5618 55.8783 43.0553C55.7816 44.3603 55.6849 46.1099 56.0233 47.4488L63.0316 45.7813C63.0606 45.8779 63.0219 45.7764 63.0219 45.3173C63.0219 44.9081 63.0445 44.3812 63.0896 43.7368C63.1911 42.4318 63.3796 40.8948 63.5729 39.2708L56.3954 38.2751ZM64.3994 47.7243C63.7121 47.276 63.2191 46.5801 63.0316 45.7813L56.0281 47.4488C56.6951 50.1071 58.3433 52.4513 60.6923 53.9013L64.3994 47.7243ZM75.4098 42.6638C75.2116 44.3071 75.0762 45.3704 74.9264 46.1824C74.8666 46.5982 74.7529 47.0044 74.5881 47.3908L80.9681 50.9191C81.4945 49.8877 81.8565 48.7804 82.0411 47.6373C82.2393 46.5498 82.4036 45.2158 82.5921 43.6643L75.4098 42.6638ZM67.7054 55.7186C69.1458 55.9216 70.4121 56.1004 71.4754 56.1681C72.5823 56.2406 73.7326 56.2164 74.9119 55.8781L72.8046 48.8939C72.4828 48.9571 72.1527 48.9653 71.8283 48.9181C71.0888 48.8698 70.1221 48.7393 68.5754 48.5218L67.7054 55.7186ZM74.5881 47.3859C74.4069 47.7439 74.1557 48.0618 73.8493 48.3208C73.5429 48.5799 73.1877 48.7748 72.8046 48.8939L74.9119 55.8781C76.1994 55.4935 77.3977 54.8571 78.4373 54.0059C79.4769 53.1546 80.3371 52.1054 80.9681 50.9191L74.5881 47.3859ZM71.8669 21.4019C73.4136 21.6146 74.3802 21.7548 75.1052 21.9094C75.7916 22.0544 75.9898 22.1704 76.0429 22.1994L79.7453 16.0224C78.7405 15.4331 77.6418 15.0211 76.4973 14.8044C75.4532 14.5773 74.1773 14.4033 72.7369 14.2051L71.8669 21.4019ZM84.2547 29.9376C84.4432 28.3813 84.6076 27.0473 84.6704 25.9404C84.7611 24.7792 84.6764 23.6109 84.4191 22.4749L77.4059 24.1424C77.4751 24.5576 77.4897 24.9801 77.4494 25.3991C77.4011 26.2256 77.2803 27.2889 77.0772 28.9371L84.2547 29.9376ZM76.0381 22.2043C76.7262 22.6505 77.2161 23.3446 77.4059 24.1424L84.4191 22.4749C83.7574 19.8005 82.0787 17.4872 79.7453 16.0224L76.0381 22.2043ZM72.7369 14.2051C71.4844 14.0103 70.2253 13.8604 68.9621 13.7556C67.8101 13.6461 66.6429 13.7443 65.5256 14.0456L67.6378 21.0298C67.9595 20.9666 68.2896 20.9584 68.6141 21.0056C69.3536 21.0539 70.3203 21.1844 71.8669 21.4019L72.7369 14.2051ZM64.8247 28.9806C65.0181 27.3614 65.2114 25.8148 65.4193 24.5291C65.5288 23.8879 65.6319 23.3723 65.7286 22.9824C65.8446 22.5378 65.9026 22.4459 65.8543 22.5378L59.4743 19.0046C58.8314 20.2033 58.5028 21.9288 58.2853 23.2096C58.0436 24.6886 57.8358 26.3996 57.6424 27.9753L64.8247 28.9806ZM65.5256 14.0456C64.239 14.4307 63.0417 15.0674 62.0029 15.9186C60.9642 16.7699 60.1047 17.8188 59.4743 19.0046L65.8543 22.5378C66.0365 22.1816 66.2882 21.8607 66.5945 21.6034C66.9008 21.3461 67.2555 21.1527 67.6378 21.0346L65.5256 14.0456ZM14.5098 34.1909L16.1724 20.4643L8.99009 19.4638L7.32742 33.1904L14.5098 34.1909ZM19.7153 41.7213C18.6304 41.5888 17.5503 41.4195 16.4769 41.2138C16.1519 41.1632 15.8361 41.0655 15.5393 40.9238L11.8418 47.1008C12.9051 47.7533 14.0071 48.0916 15.0898 48.3236C16.1338 48.5459 17.4098 48.7199 18.8501 48.9181L19.7153 41.7213ZM7.32742 33.1904C7.13892 34.7419 6.97459 36.0759 6.91176 37.1828C6.81337 38.344 6.89819 39.5134 7.16309 40.6483L14.1714 38.9808C14.1039 38.5653 14.0909 38.1429 14.1328 37.7241C14.1811 36.9024 14.3068 35.8343 14.5098 34.1909L7.32742 33.1904ZM15.5441 40.9238C14.8549 40.4764 14.365 39.7804 14.1763 38.9808L7.16792 40.6483C7.83492 43.3066 9.48792 45.6508 11.8369 47.1008L15.5441 40.9238ZM26.7574 34.1474C26.5641 35.7714 26.3708 37.3133 26.1629 38.5941C26.0534 39.2353 25.9503 39.7509 25.8536 40.1408C25.7376 40.5854 25.6796 40.6773 25.7279 40.5903L32.1079 44.1186C32.7508 42.9199 33.0843 41.1993 33.2969 39.9136C33.5386 38.4394 33.7464 36.7236 33.9398 35.1479L26.7574 34.1474ZM18.8501 48.9181C20.2904 49.1211 21.5568 49.2999 22.6249 49.3676C23.7269 49.4401 24.8724 49.4208 26.0518 49.0776L23.9444 42.0983C23.6227 42.1615 23.2926 42.1696 22.9681 42.1224C21.88 42.0238 20.7952 41.8916 19.7153 41.7261L18.8501 48.9181ZM25.7279 40.5903C25.5462 40.9473 25.2996 41.2643 24.9933 41.5225C24.6869 41.7807 24.3319 41.9748 23.9493 42.0934L26.0518 49.0776C27.3392 48.693 28.5423 48.0566 29.5819 47.2054C30.6215 46.3541 31.4769 45.3049 32.1079 44.1186L25.7279 40.5903ZM23.0068 14.5966C24.5534 14.8141 25.5201 14.9494 26.2451 15.1041C26.9314 15.2491 27.1296 15.3651 27.1828 15.3941L30.8899 9.22194C29.884 8.63036 28.7836 8.21669 27.6371 7.99911C26.5931 7.77677 25.3171 7.60277 23.8768 7.39977L23.0068 14.5966ZM35.1868 24.8433C35.3801 23.2724 35.5879 21.5566 35.7039 20.0679C35.8006 18.7629 35.8973 17.0133 35.5589 15.6744L28.5506 17.3419C28.5216 17.2404 28.5554 17.3419 28.5603 17.8011C28.5603 18.2103 28.5361 18.7388 28.4878 19.3864C28.3911 20.6866 28.2026 22.2284 28.0044 23.8476L35.1868 24.8433ZM27.1828 15.4086C27.8701 15.8569 28.3582 16.5527 28.5458 17.3516L35.5541 15.6793C34.8925 13.0074 33.2206 10.6961 30.8899 9.23161L27.1828 15.4086ZM23.8768 7.39977C22.4364 7.20161 21.1701 7.02761 20.1068 6.95511C18.9531 6.845 17.7891 6.94323 16.6703 7.24511L18.7776 14.2341C19.0991 14.1693 19.4292 14.1595 19.7539 14.2051C20.4934 14.2534 21.4601 14.3839 23.0068 14.5966L23.8768 7.39977ZM16.1724 20.4594C16.3706 18.8161 16.5011 17.7528 16.6558 16.9408C16.716 16.5267 16.8297 16.1221 16.9941 15.7373L10.6141 12.2089C10.0882 13.2388 9.72614 14.3444 9.54109 15.4859C9.33809 16.5734 9.17859 17.9074 8.99009 19.4638L16.1724 20.4594ZM16.6751 7.24994C15.3876 7.63452 14.1894 8.2709 13.1497 9.12216C12.1101 9.97343 11.2499 11.0178 10.6189 12.2041L16.9989 15.7421C17.1806 15.3851 17.4321 15.0681 17.7384 14.8099C18.0448 14.5517 18.3998 14.3576 18.7824 14.2389L16.6751 7.24994ZM31.1654 27.9559L60.8034 32.0788L61.6734 24.8819L32.0403 20.7591L31.1654 27.9559ZM60.4264 35.1769L30.7884 31.0541L29.9184 38.2558L59.5516 42.3738L60.4264 35.1769Z" fill="#FEFFD2"/>
<path opacity="0.5" d="M55.8201 89.2619L52.3353 90.2624C51.8519 88.3194 53.0119 86.299 54.9404 85.7432L55.8201 89.2619ZM53.3116 79.2327L54.1913 82.7514C53.7393 82.8844 53.265 82.9243 52.7972 82.8685C52.3293 82.8128 51.8777 82.6627 51.4696 82.4272C51.0615 82.1918 50.7055 81.8759 50.4231 81.4988C50.1407 81.1216 49.9378 80.6911 49.8268 80.2332L53.3116 79.2327ZM84.6848 80.9775L83.8051 77.4589C84.2568 77.3258 84.7307 77.2857 85.1983 77.3411C85.6659 77.3966 86.1173 77.5463 86.5254 77.7813C86.9334 78.0162 87.2895 78.3315 87.5721 78.7081C87.8548 79.0847 88.058 79.5148 88.1696 79.9722L84.6848 80.9775ZM82.1763 70.9484L85.6563 69.9479C85.8871 70.8904 85.7456 71.8856 85.2613 72.7265C84.777 73.5673 83.9871 74.189 83.0559 74.4622L82.1763 70.9484ZM37.6516 81.9345L40.9963 95.3084L34.0266 97.3045L30.6819 83.9355L37.6516 81.9345ZM48.5024 100.132C50.0104 99.697 50.9529 99.4264 51.6538 99.1654C51.9744 99.0691 52.279 98.9258 52.5576 98.74L56.9704 104.376C56.0038 105.168 54.9549 105.657 53.9109 106.038C52.9056 106.406 51.6683 106.763 50.2618 107.165L48.5024 100.132ZM59.3049 88.2614C59.6916 89.7984 60.1073 91.4659 60.4021 92.9304C60.6631 94.2064 60.9724 95.9415 60.8033 97.319L53.6741 96.623C53.6596 96.7294 53.6838 96.623 53.6258 96.1687C53.5599 95.6482 53.4728 95.1306 53.3648 94.6172C53.0522 93.1585 52.709 91.7066 52.3353 90.2624L59.3049 88.2614ZM52.5576 98.74C53.1847 98.202 53.5872 97.4447 53.6741 96.623L60.8033 97.319C60.4775 100.076 59.1054 102.602 56.9704 104.376L52.5576 98.74ZM40.9963 95.3084C41.3974 96.9082 41.6584 97.9474 41.9098 98.7255C42.0217 99.1233 42.1841 99.505 42.3931 99.8614L36.5399 104.284C35.8898 103.329 35.3925 102.279 35.0658 101.171C34.7274 100.118 34.4084 98.8174 34.0266 97.3045L40.9963 95.3084ZM50.2618 107.165C48.8601 107.566 47.6228 107.923 46.5788 108.146C45.4961 108.373 44.3554 108.513 43.1471 108.339L44.3458 101.099C44.4086 101.108 44.6358 101.128 45.3269 100.983C46.0519 100.833 46.9993 100.562 48.5024 100.132L50.2618 107.165ZM42.3883 99.8565C42.9054 100.582 43.6256 100.997 44.3458 101.099L43.1519 108.344C41.8325 108.149 40.5663 107.685 39.4298 106.987C38.2933 106.289 37.3102 105.373 36.5399 104.284L42.3883 99.8565ZM41.9049 73.7324C40.3969 74.1674 39.4544 74.438 38.7536 74.699C38.4313 74.7949 38.125 74.9382 37.8449 75.1244L33.4321 69.4887C34.3988 68.6912 35.4524 68.2079 36.4916 67.826C37.5018 67.4539 38.7391 67.101 40.1408 66.6999L41.9049 73.7324ZM30.6819 83.9355C30.3049 82.4227 29.9763 81.1177 29.7781 80.0302C29.5436 78.8858 29.4833 77.7126 29.5993 76.5502L36.7333 77.2414C36.7165 77.6585 36.7539 78.076 36.8444 78.4835C36.9894 79.2907 37.2504 80.3347 37.6516 81.9345L30.6819 83.9355ZM37.8449 75.1244C37.2179 75.6624 36.8202 76.4197 36.7333 77.2414L29.5993 76.5454C29.9376 73.8097 31.2861 71.2529 33.4321 69.4887L37.8449 75.1244ZM40.1408 66.6999C41.5424 66.2939 42.7846 65.9362 43.8286 65.7187C44.9064 65.4915 46.0471 65.3514 47.2554 65.5254L46.0616 72.7657C45.729 72.7458 45.3955 72.7835 45.0756 72.8769C44.3506 73.0315 43.4033 73.3022 41.9001 73.7324L40.1408 66.6999ZM49.8316 80.2332C49.4353 78.6527 49.0583 77.1495 48.6909 75.9122C48.5452 75.4095 48.3791 74.9128 48.1931 74.4235C48.0288 73.9982 47.9563 73.9209 48.0191 74.0079L53.8674 69.5854C54.6649 70.6922 55.2014 72.3549 55.5736 73.597C55.9989 75.0277 56.4146 76.6952 56.8013 78.237L49.8316 80.2332ZM47.2554 65.5254C48.5748 65.7198 49.8459 66.1798 50.9824 66.8777C52.1189 67.5755 53.0972 68.4967 53.8674 69.5854L48.0191 74.0079C47.7953 73.6782 47.5109 73.3982 47.1741 73.1853C46.8373 72.9725 46.4602 72.8313 46.0664 72.7705L47.2554 65.5254ZM100.35 78.2757L97.0049 64.9019L103.97 62.9009L107.314 76.2747L100.35 78.2757ZM96.0963 86.473C97.6043 86.038 98.5468 85.7674 99.2476 85.5064C99.5683 85.4101 99.8729 85.2668 100.151 85.081L104.564 90.7167C103.646 91.4435 102.614 92.006 101.505 92.3794C100.499 92.7467 99.2621 93.1044 97.8604 93.5055L96.0963 86.473ZM107.314 76.2747C107.696 77.7875 108.02 79.0877 108.223 80.1752C108.426 81.2965 108.547 82.442 108.397 83.6552L101.268 82.964C101.283 82.5467 101.244 82.1292 101.152 81.7219C100.917 80.5659 100.649 79.4167 100.35 78.2757L107.314 76.2747ZM100.151 85.081C100.778 84.543 101.181 83.7857 101.268 82.964L108.397 83.6552C108.073 86.4111 106.702 88.9371 104.569 90.7119L100.151 85.081ZM88.1744 79.977C88.5708 81.5527 88.9478 83.0559 89.3151 84.298C89.4988 84.9135 89.6647 85.4097 89.8129 85.7867C89.9773 86.2072 90.0498 86.2894 89.9869 86.2024L84.1338 90.6249C83.3411 89.518 82.8046 87.8554 82.4324 86.6084C82.0071 85.1825 81.5914 83.515 81.2048 81.978L88.1744 79.977ZM97.8604 93.5055C96.4588 93.9067 95.2166 94.2644 94.1726 94.4867C93.0495 94.7556 91.8872 94.8259 90.7409 94.6849L91.9396 87.4397C92.0024 87.4494 92.2296 87.4687 92.9208 87.3237C93.6506 87.1739 94.5883 86.9032 96.0963 86.473L97.8604 93.5055ZM89.9869 86.2024C90.2107 86.532 90.4952 86.812 90.832 87.0249C91.1688 87.2378 91.5458 87.379 91.9396 87.4397L90.7409 94.6849C89.4207 94.4932 88.1583 94.0343 87.0214 93.3362C85.8845 92.6382 84.902 91.7156 84.1338 90.6249L89.9869 86.2024ZM89.4988 60.0782C87.9908 60.5132 87.0483 60.7839 86.3474 61.0449C86.0268 61.1412 85.7222 61.2845 85.4436 61.4702L81.0211 55.8345C81.9878 55.037 83.0463 54.5537 84.0903 54.1719C85.0956 53.7997 86.3329 53.4469 87.7394 53.0457L89.4988 60.0782ZM78.6963 71.9489C78.3096 70.4119 77.8939 68.7444 77.5991 67.2799C77.3381 66.0039 77.0288 64.2735 77.1979 62.8912L84.3271 63.5872C84.3416 63.476 84.3174 63.5872 84.3754 64.0367C84.4206 64.4427 84.5076 64.9615 84.6364 65.593C84.8974 66.869 85.2696 68.3674 85.6659 69.9479L78.6963 71.9489ZM85.4436 61.4702C84.8166 62.0082 84.414 62.7656 84.3271 63.5872L77.1979 62.8912C77.5363 60.1555 78.8751 57.5987 81.0211 55.8345L85.4436 61.4702ZM87.7394 53.0457C89.1411 52.6445 90.3784 52.2869 91.4224 52.0645C92.5456 51.7956 93.7079 51.7301 94.8541 51.8712L93.6554 59.1115C93.3244 59.0922 92.9926 59.1298 92.6743 59.2227C91.9493 59.3774 91.0019 59.648 89.4988 60.0782L87.7394 53.0457ZM97.0049 64.9019C96.7326 63.7545 96.428 62.615 96.0914 61.4847C95.9795 61.087 95.8171 60.7053 95.6081 60.3489L101.461 55.9264C102.157 56.9027 102.587 57.9564 102.935 59.039C103.274 60.0879 103.593 61.388 103.97 62.9057L97.0049 64.9019ZM94.8493 51.8664C96.1687 52.0608 97.4349 52.5208 98.5714 53.2187C99.7079 53.9165 100.691 54.8377 101.461 55.9264L95.6081 60.3489C95.3843 60.0192 95.0998 59.7392 94.7631 59.5263C94.4263 59.3135 94.0492 59.1723 93.6554 59.1115L94.8493 51.8664ZM83.0608 74.467L54.1961 82.7514L52.4368 75.7189L81.3014 67.4297L83.0608 74.467ZM54.9453 85.7432L83.8051 77.4589L85.5693 84.4914L56.7046 92.7757L54.9453 85.7432Z" fill="#BCD933"/>
</svg>
