<svg width="104" height="103" viewBox="0 0 104 103" fill="none" xmlns="http://www.w3.org/2000/svg">
<path id="Vector" d="M75.1704 59.6213L74.6425 64.5933L74.6428 64.5933L75.1704 59.6213ZM98.8966 84.735L103.891 84.4972L103.89 84.4844L98.8966 84.735ZM97.6016 94.4244L92.851 92.865L92.8487 92.872L92.8465 92.8789L97.6016 94.4244ZM6.22087 75.3717L11.1238 76.3523L11.1238 76.3522L6.22087 75.3717ZM20.2947 5V0H16.1957L15.3918 4.01945L20.2947 5ZM48.0447 5L52.386 2.51931L50.9464 0H48.0447V5ZM57.2947 21.1875L60.2036 25.2542L63.8762 22.6273L61.636 18.7068L57.2947 21.1875ZM37.4766 35.3631L33.5271 38.4293L36.4753 42.2268L40.3855 39.4299L37.4766 35.3631ZM42.3265 34.0584C41.606 31.3927 38.8608 29.8158 36.1951 30.5363C33.5293 31.2569 31.9524 34.0021 32.673 36.6678L42.3265 34.0584ZM43.218 75.6797C43.9385 78.3454 46.6837 79.9223 49.3494 79.2018C52.0152 78.4812 53.5921 75.7361 52.8715 73.0703L43.218 75.6797ZM51.4074 80.3311C54.133 70.4626 63.659 63.4272 74.6425 64.5933L75.6982 54.6492C59.6718 52.9478 45.749 63.2562 41.7683 77.6689L51.4074 80.3311ZM74.6428 64.5933C85.0437 65.697 93.3783 74.5319 93.9029 84.9856L103.89 84.4844C103.12 69.1306 91.0121 56.2742 75.698 54.6492L74.6428 64.5933ZM93.9023 84.9728C94.0351 87.7626 93.6555 90.4142 92.851 92.865L102.352 95.9837C103.537 92.3758 104.082 88.5061 103.891 84.4972L93.9023 84.9728ZM92.8465 92.8789C92.905 92.6989 93.0087 92.5959 93.0699 92.5533C93.1255 92.5146 93.1782 92.5 93.231 92.5V102.5C97.1971 102.5 101.036 100.033 102.357 95.9698L92.8465 92.8789ZM93.231 92.5H24.3601V102.5H93.231V92.5ZM24.3601 92.5C15.8425 92.5 9.45307 84.7058 11.1238 76.3523L1.31797 74.3911C-1.59008 88.9313 9.53078 102.5 24.3601 102.5V92.5ZM11.1238 76.3522L25.1977 5.98055L15.3918 4.01945L1.31796 74.3911L11.1238 76.3522ZM20.2947 10H48.0447V0H20.2947V10ZM43.7035 7.48069L52.9535 23.6682L61.636 18.7068L52.386 2.51931L43.7035 7.48069ZM54.3859 17.1208L34.5677 31.2964L40.3855 39.4299L60.2036 25.2542L54.3859 17.1208ZM41.4261 32.2969L35.8067 25.0588L27.9078 31.1912L33.5271 38.4293L41.4261 32.2969ZM32.673 36.6678L43.218 75.6797L52.8715 73.0703L42.3265 34.0584L32.673 36.6678Z" fill="#D1DE83"/>
</svg>
