<svg width="79" height="80" viewBox="0 0 79 80" fill="none" xmlns="http://www.w3.org/2000/svg">
<g id="perfil" clip-path="url(#clip0_409_1495)">
<path id="Vector" d="M54.125 30C54.125 33.9782 52.5842 37.7936 49.8414 40.6066C47.0987 43.4196 43.3788 45 39.5 45C35.6212 45 31.9013 43.4196 29.1586 40.6066C26.4158 37.7936 24.875 33.9782 24.875 30C24.875 26.0218 26.4158 22.2064 29.1586 19.3934C31.9013 16.5804 35.6212 15 39.5 15C43.3788 15 47.0987 16.5804 49.8414 19.3934C52.5842 22.2064 54.125 26.0218 54.125 30Z" fill="#7F8658"/>
<path id="Vector_2" fill-rule="evenodd" clip-rule="evenodd" d="M0.5 40C0.5 29.3913 4.60892 19.2172 11.9228 11.7157C19.2368 4.21427 29.1566 0 39.5 0C49.8434 0 59.7632 4.21427 67.0772 11.7157C74.3911 19.2172 78.5 29.3913 78.5 40C78.5 50.6087 74.3911 60.7828 67.0772 68.2843C59.7632 75.7857 49.8434 80 39.5 80C29.1566 80 19.2368 75.7857 11.9228 68.2843C4.60892 60.7828 0.5 50.6087 0.5 40ZM39.5 5C33.0737 5.00035 26.778 6.86181 21.3377 10.3701C15.8974 13.8785 11.5335 18.8911 8.74833 24.831C5.96315 30.7709 4.86988 37.3967 5.59437 43.9458C6.31885 50.4949 8.83163 56.701 12.8435 61.85C16.3048 56.13 23.9244 50 39.5 50C55.0756 50 62.6904 56.125 66.1565 61.85C70.1684 56.701 72.6812 50.4949 73.4056 43.9458C74.1301 37.3967 73.0368 30.7709 70.2517 24.831C67.4665 18.8911 63.1026 13.8785 57.6623 10.3701C52.222 6.86181 45.9263 5.00035 39.5 5Z" fill="#7F8658"/>
</g>
<defs>
<clipPath id="clip0_409_1495">
<rect width="78" height="80" fill="white" transform="translate(0.5)"/>
</clipPath>
</defs>
</svg>
