<svg width="364" height="1049" viewBox="0 0 364 1049" fill="none" xmlns="http://www.w3.org/2000/svg">
<path d="M0.5 5.00013C0.5 2.23871 2.73858 0.000106812 5.5 0.000106812H410.5C413.261 0.000106812 415.5 2.23868 415.5 5.00011V1044C415.5 1046.76 413.261 1049 410.5 1049H5.5C2.73858 1049 0.5 1046.76 0.5 1044V5.00013Z" fill="#0C0C1F"/>
<path d="M277.6 357.956C286.5 357.956 293.65 360.556 299.05 365.756C304.45 370.956 307.15 378.056 307.15 387.056C307.15 396.156 306.25 405.456 304.45 414.956L280.45 411.956C282.75 402.056 283.9 395.256 283.9 391.556C283.9 386.856 282 384.506 278.2 384.506C276.7 384.506 275.25 385.606 273.85 387.806C272.45 390.106 270.95 392.856 269.35 396.056C267.85 399.256 266 402.456 263.8 405.656C261.7 408.856 258.65 411.556 254.65 413.756C250.65 416.056 246.05 417.206 240.85 417.206C231.35 417.206 224 414.656 218.8 409.556C213.6 404.456 211 397.206 211 387.806C211 378.506 212.45 369.406 215.35 360.506L237.7 362.156C234.6 372.856 233.05 380.306 233.05 384.506C233.05 388.706 234.9 390.806 238.6 390.806C240.5 390.806 242.25 389.656 243.85 387.356C245.45 385.156 247.05 382.456 248.65 379.256C250.25 376.056 252.1 372.806 254.2 369.506C256.3 366.306 259.35 363.556 263.35 361.256C267.35 359.056 272.1 357.956 277.6 357.956Z" fill="white"/>
<path d="M283 480.319V462.919H212.5V437.269H283V418.819L305.65 420.319V481.819L283 480.319Z" fill="white"/>
<path d="M212.5 554.593V529.543L227.2 526.693V508.993L212.5 506.143V482.293L305.65 499.393V537.493L212.5 554.593ZM244.75 523.843L278.05 518.593V517.543L244.75 512.293V523.843Z" fill="white"/>
<path d="M276.1 626.15C270.5 626.15 265.85 625.3 262.15 623.6C258.45 621.9 255.1 619.25 252.1 615.65L212.5 628.1V600.35L246.1 591.05V587.6H212.5V562.4H305.65V597.2C305.65 607.2 303.3 614.5 298.6 619.1C293.9 623.8 286.4 626.15 276.1 626.15ZM261.85 591.5C261.85 594.1 262.6 595.95 264.1 597.05C265.6 598.15 268.3 598.7 272.2 598.7C276.2 598.7 278.95 598.15 280.45 597.05C282.05 595.95 282.85 594.15 282.85 591.65V587.6H261.85V591.5Z" fill="white"/>
<path d="M283 690.671V673.271H212.5V647.621H283V629.171L305.65 630.671V692.171L283 690.671Z" fill="white"/>
<path d="M47.5 466.068V441.468L90.85 422.118V420.918H47.5V398.118H140.65V423.468L95.95 441.918V443.118H140.65V466.068H47.5Z" fill="#BCD933"/>
<path d="M130.9 484.82C138.4 490.62 142.15 500.07 142.15 513.17C142.15 526.27 138.45 535.62 131.05 541.22C123.65 546.92 111.6 549.77 94.9 549.77C78.3 549.77 66 546.87 58 541.07C50 535.27 46 525.87 46 512.87C46 499.87 49.95 490.52 57.85 484.82C65.75 479.12 78 476.27 94.6 476.27C111.3 476.27 123.4 479.12 130.9 484.82ZM94.9 523.97C104.1 523.97 110.3 523.22 113.5 521.72C116.8 520.32 118.45 517.37 118.45 512.87C118.45 508.47 116.8 505.62 113.5 504.32C110.3 503.02 104.15 502.37 95.05 502.37H91.45C81.75 502.37 75.35 503.07 72.25 504.47C69.25 505.97 67.75 508.92 67.75 513.32C67.75 517.82 69.2 520.72 72.1 522.02C75 523.32 81 523.97 90.1 523.97H94.9Z" fill="#BCD933"/>
<path d="M140.65 652.533L47.5 644.133V613.233L88.75 605.133V603.933L47.5 597.183V566.133L140.65 556.383V580.983L91.3 584.883V586.383L140.65 592.683V617.733L91.3 624.633V626.133L140.65 628.833V652.533Z" fill="#BCD933"/>
<path d="M147.233 -45.3883C157.085 -21.1193 334.912 -4.12946 326.874 114.745C313.016 319.687 411.18 412.886 515.393 456.364M126.5 -38.0292C136.352 -13.7602 305.849 8.83955 297.811 127.714C283.952 332.656 390.447 420.245 494.661 463.723M159.484 -49.7369C169.336 -25.4678 354.868 -15.9877 346.83 102.887C332.971 307.829 423.431 408.538 527.644 452.015M171.735 -54.0854C181.587 -29.8164 371.662 -38.9269 363.624 79.9479C349.766 284.889 435.682 404.189 539.896 447.667M481 1069.5C470 1056.17 444.4 1026.5 430 1014.5C412 999.5 360 977.5 291.5 962.5C223 947.5 163.5 976 75.5 882C-12.5 788 -36.5 791 -115.5 628.5C-178.7 498.5 -272.833 480 -312 487M481 1091C470 1077.67 444.4 1048 430 1036C412 1021 360 999 291.5 984C223 969 175.009 1001.72 75.5 920C-14 846.5 -57 881 -136 718.5C-199.2 588.5 -302.333 549.5 -341.5 556.5M493 1050.5C481.667 1037.67 455.1 1008.3 439.5 993.5C420 975 349.5 934 301.5 927C253.5 920 167.909 904.404 112.5 846C83 814.906 -26.5 673 -55 606.5C-106.213 487.003 -184.5 396 -312 375M501 1021C481 1000.5 465.2 971 452 957C435.5 939.5 412.5 909 317.5 882C275.987 870.202 223.381 849.493 151 792.5C87.5 742.5 30.7366 626.5 12 548C-17 426.5 -196 294.5 -294.5 277M5.5 1049H410.5C413.261 1049 415.5 1046.76 415.5 1044V5.00011C415.5 2.23868 413.261 0.000106812 410.5 0.000106812H5.5C2.73858 0.000106812 0.5 2.23871 0.5 5.00013V1044C0.5 1046.76 2.73858 1049 5.5 1049ZM277.6 357.956C286.5 357.956 293.65 360.556 299.05 365.756C304.45 370.956 307.15 378.056 307.15 387.056C307.15 396.156 306.25 405.456 304.45 414.956L280.45 411.956C282.75 402.056 283.9 395.256 283.9 391.556C283.9 386.856 282 384.506 278.2 384.506C276.7 384.506 275.25 385.606 273.85 387.806C272.45 390.106 270.95 392.856 269.35 396.056C267.85 399.256 266 402.456 263.8 405.656C261.7 408.856 258.65 411.556 254.65 413.756C250.65 416.056 246.05 417.206 240.85 417.206C231.35 417.206 224 414.656 218.8 409.556C213.6 404.456 211 397.206 211 387.806C211 378.506 212.45 369.406 215.35 360.506L237.7 362.156C234.6 372.856 233.05 380.306 233.05 384.506C233.05 388.706 234.9 390.806 238.6 390.806C240.5 390.806 242.25 389.656 243.85 387.356C245.45 385.156 247.05 382.456 248.65 379.256C250.25 376.056 252.1 372.806 254.2 369.506C256.3 366.306 259.35 363.556 263.35 361.256C267.35 359.056 272.1 357.956 277.6 357.956ZM283 480.319V462.919H212.5V437.269H283V418.819L305.65 420.319V481.819L283 480.319ZM212.5 554.593V529.543L227.2 526.693V508.993L212.5 506.143V482.293L305.65 499.393V537.493L212.5 554.593ZM244.75 523.843L278.05 518.593V517.543L244.75 512.293V523.843ZM276.1 626.15C270.5 626.15 265.85 625.3 262.15 623.6C258.45 621.9 255.1 619.25 252.1 615.65L212.5 628.1V600.35L246.1 591.05V587.6H212.5V562.4H305.65V597.2C305.65 607.2 303.3 614.5 298.6 619.1C293.9 623.8 286.4 626.15 276.1 626.15ZM261.85 591.5C261.85 594.1 262.6 595.95 264.1 597.05C265.6 598.15 268.3 598.7 272.2 598.7C276.2 598.7 278.95 598.15 280.45 597.05C282.05 595.95 282.85 594.15 282.85 591.65V587.6H261.85V591.5ZM283 690.671V673.271H212.5V647.621H283V629.171L305.65 630.671V692.171L283 690.671ZM47.5 466.068V441.468L90.85 422.118V420.918H47.5V398.118H140.65V423.468L95.95 441.918V443.118H140.65V466.068H47.5ZM130.9 484.82C138.4 490.62 142.15 500.07 142.15 513.17C142.15 526.27 138.45 535.62 131.05 541.22C123.65 546.92 111.6 549.77 94.9 549.77C78.3 549.77 66 546.87 58 541.07C50 535.27 46 525.87 46 512.87C46 499.87 49.95 490.52 57.85 484.82C65.75 479.12 78 476.27 94.6 476.27C111.3 476.27 123.4 479.12 130.9 484.82ZM94.9 523.97C104.1 523.97 110.3 523.22 113.5 521.72C116.8 520.32 118.45 517.37 118.45 512.87C118.45 508.47 116.8 505.62 113.5 504.32C110.3 503.02 104.15 502.37 95.05 502.37H91.45C81.75 502.37 75.35 503.07 72.25 504.47C69.25 505.97 67.75 508.92 67.75 513.32C67.75 517.82 69.2 520.72 72.1 522.02C75 523.32 81 523.97 90.1 523.97H94.9ZM140.65 652.533L47.5 644.133V613.233L88.75 605.133V603.933L47.5 597.183V566.133L140.65 556.383V580.983L91.3 584.883V586.383L140.65 592.683V617.733L91.3 624.633V626.133L140.65 628.833V652.533Z" stroke="#D1DE83" stroke-width="3"/>
</svg>
