<svg width="38" height="42" viewBox="0 0 38 42" fill="none" xmlns="http://www.w3.org/2000/svg">
<g id="Vector">
<path id="Vector_2" d="M30.2345 6.92333C28.6218 5.14559 27.733 2.86296 27.7332 0.5H20.4417V28.7444C20.3867 30.2733 19.7185 31.7217 18.5783 32.7841C17.4381 33.8465 15.9149 34.4398 14.3301 34.4389C10.9794 34.4389 8.19493 31.7967 8.19493 28.5167C8.19493 24.5989 12.112 21.6606 16.1471 22.8678V15.67C8.00616 14.6222 0.879883 20.7267 0.879883 28.5167C0.879883 36.1017 7.39264 41.5 14.3065 41.5C21.716 41.5 27.7332 35.6917 27.7332 28.5167V14.1894C30.6899 16.2391 34.2397 17.3388 37.8799 17.3328V10.2944C37.8799 10.2944 33.4437 10.4994 30.2345 6.92333Z" fill="white"/>
</g>
</svg>
