<svg width="50" height="36" viewBox="0 0 50 36" fill="none" xmlns="http://www.w3.org/2000/svg">
<g id="Vector">
<path id="Vector_2" d="M20.56 25.7143L33.2755 18L20.56 10.2857V25.7143ZM48.882 5.58C49.2005 6.78857 49.421 8.40857 49.568 10.4657C49.7395 12.5229 49.813 14.2971 49.813 15.84L49.96 18C49.96 23.6314 49.568 27.7714 48.882 30.42C48.2695 32.7343 46.8485 34.2257 44.6435 34.8686C43.492 35.2029 41.385 35.4343 38.151 35.5886C34.966 35.7686 32.0505 35.8457 29.3555 35.8457L25.46 36C15.1945 36 8.79996 35.5886 6.27646 34.8686C4.07146 34.2257 2.65046 32.7343 2.03796 30.42C1.71946 29.2114 1.49896 27.5914 1.35196 25.5343C1.18046 23.4771 1.10696 21.7029 1.10696 20.16L0.959961 18C0.959961 12.3686 1.35196 8.22857 2.03796 5.58C2.65046 3.26571 4.07146 1.77429 6.27646 1.13143C7.42796 0.797143 9.53496 0.565714 12.769 0.411428C15.954 0.231428 18.8695 0.154286 21.5645 0.154286L25.46 0C35.7255 0 42.12 0.411429 44.6435 1.13143C46.8485 1.77429 48.2695 3.26571 48.882 5.58Z" fill="white"/>
</g>
</svg>
